<svg fill="#2D7345" id="Capa_1" enable-background="new 0 0 512 512" height="512" viewBox="0 0 512 512" width="512" xmlns="http://www.w3.org/2000/svg"><g><path d="m497 8.5h-301c-8.291 0-15 6.709-15 15v255c0 8.291 6.709 15 15 15h271c8.276 0 15 6.724 15 15 0 8.291 6.709 15 15 15s15-6.709 15-15v-285c0-8.291-6.709-15-15-15zm-151 225c-8.284 0-15-6.716-15-15 0-8.286 6.716-15 15-15s15 6.714 15 15c0 8.284-6.716 15-15 15zm22.515-81.035c-4.629 2.681-7.515 7.676-7.515 13.008 0 8.291-6.709 15-15 15s-15-6.709-15-15c0-16.011 8.613-30.938 22.485-38.965 4.644-2.681 7.515-7.661 7.515-13.008 0-8.276-6.724-15-15-15s-15 6.724-15 15c0 8.291-6.709 15-15 15s-15-6.709-15-15c0-24.814 20.186-45 45-45s45 20.186 45 45c0 16.011-8.613 30.952-22.485 38.965z"/><path d="m15 503.5c8.291 0 15-6.709 15-15 0-8.276 6.724-15 15-15h271c8.291 0 15-6.709 15-15v-135h-135c-24.814 0-45-20.186-45-45v-75h-136c-8.291 0-15 6.709-15 15v270c0 8.291 6.709 15 15 15zm60-210h31c8.291 0 15 6.709 15 15s-6.709 15-15 15h-31c-8.291 0-15-6.709-15-15s6.709-15 15-15zm0 60h181c8.291 0 15 6.709 15 15s-6.709 15-15 15h-181c-8.291 0-15-6.709-15-15s6.709-15 15-15z"/></g></svg>